<?xml version="1.0" encoding="UTF-8" standalone="no"?>
<!DOCTYPE svg PUBLIC "-//W3C//DTD SVG 1.1//EN"
 "http://www.w3.org/Graphics/SVG/1.1/DTD/svg11.dtd">
<!-- Generated by graphviz version 2.46.1 (20210213.1702)
 -->
<!-- Title: G Pages: 1 -->
<svg width="766pt" height="330pt"
 viewBox="0.00 0.00 766.00 330.00" xmlns="http://www.w3.org/2000/svg" xmlns:xlink="http://www.w3.org/1999/xlink">
<g id="graph0" class="graph" transform="scale(1 1) rotate(0) translate(4 326)">
<title>G</title>
<polygon fill="white" stroke="transparent" points="-4,4 -4,-326 762,-326 762,4 -4,4"/>
<g id="clust1" class="cluster">
<title>cluster_family_0</title>
</g>
<g id="clust4" class="cluster">
<title>cluster_family_1</title>
</g>
<g id="clust7" class="cluster">
<title>cluster_family_2</title>
</g>
<!-- union_0 -->
<g id="node1" class="node">
<title>union_0</title>
<ellipse fill="#1abc9c" stroke="white" cx="501.5" cy="-222" rx="3.5" ry="3.5"/>
</g>
<!-- siblings_0 -->
<g id="node4" class="node">
<title>siblings_0</title>
<polygon fill="#1abc9c" stroke="#cccccc" stroke-width="0" points="541,-222.5 534,-222.5 534,-221.5 541,-221.5 541,-222.5"/>
</g>
<!-- union_0&#45;&gt;siblings_0 -->
<g id="edge3" class="edge">
<title>union_0&#45;&gt;siblings_0</title>
<path fill="none" stroke="#1abc9c" d="M505.08,-222C511.91,-222 526.73,-222 533.72,-222"/>
</g>
<!-- Homer -->
<g id="node2" class="node">
<title>Homer</title>
<polygon fill="white" stroke="#cccccc" points="469,-250.5 289,-250.5 289,-203.5 469,-203.5 469,-250.5"/>
<text text-anchor="start" x="353.5" y="-228" font-family="Sedgwick Ave" font-size="20.00">Homer</text>
<text text-anchor="start" x="349" y="-212" font-family="Sedgwick Ave" font-size="10.00" fill="#aaaaaa">Homer Simpson</text>
</g>
<!-- Homer&#45;&gt;union_0 -->
<g id="edge1" class="edge">
<title>Homer&#45;&gt;union_0</title>
<path fill="none" stroke="#1abc9c" d="M469.31,-222C481.94,-222 492.42,-222 497.73,-222"/>
</g>
<!-- Marge -->
<g id="node3" class="node">
<title>Marge</title>
<polygon fill="white" stroke="#cccccc" points="469,-185.5 289,-185.5 289,-138.5 469,-138.5 469,-185.5"/>
<text text-anchor="start" x="354" y="-163" font-family="Sedgwick Ave" font-size="20.00">Marge</text>
<text text-anchor="start" x="321" y="-147" font-family="Sedgwick Ave" font-size="10.00" fill="#aaaaaa">Marjorie Jacqueline Simpson</text>
</g>
<!-- Marge&#45;&gt;union_0 -->
<g id="edge2" class="edge">
<title>Marge&#45;&gt;union_0</title>
<path fill="none" stroke="#1abc9c" d="M469.04,-166.5C487.79,-166.5 502,-166.5 502,-166.5 502,-166.5 502,-206.01 502,-218.36"/>
</g>
<!-- Bart -->
<g id="node5" class="node">
<title>Bart</title>
<polygon fill="white" stroke="#cccccc" points="750,-180.5 570,-180.5 570,-133.5 750,-133.5 750,-180.5"/>
<text text-anchor="start" x="638.5" y="-158" font-family="Sedgwick Ave" font-size="20.00">Bart</text>
<text text-anchor="start" x="632" y="-142" font-family="Sedgwick Ave" font-size="10.00" fill="#aaaaaa">Bart Simpson</text>
</g>
<!-- siblings_0&#45;&gt;Bart -->
<g id="edge4" class="edge">
<title>siblings_0&#45;&gt;Bart</title>
<path fill="none" stroke="#1abc9c" d="M538,-221.22C538,-213.58 538,-152.5 538,-152.5 538,-152.5 559.74,-152.5 559.74,-152.5"/>
<polygon fill="#1abc9c" stroke="#1abc9c" points="567.74,-142.5 567.74,-162.5 563.74,-162.5 563.74,-142.5 567.74,-142.5"/>
<polyline fill="none" stroke="#1abc9c" points="569.74,-152.5 559.74,-152.5 "/>
</g>
<!-- Lisa -->
<g id="node6" class="node">
<title>Lisa</title>
<polygon fill="white" stroke="#cccccc" points="750,-245.5 570,-245.5 570,-198.5 750,-198.5 750,-245.5"/>
<text text-anchor="start" x="644.5" y="-223" font-family="Sedgwick Ave" font-size="20.00">Lisa</text>
<text text-anchor="start" x="635" y="-207" font-family="Sedgwick Ave" font-size="10.00" fill="#aaaaaa">Lisa Simpson</text>
</g>
<!-- siblings_0&#45;&gt;Lisa -->
<g id="edge5" class="edge">
<title>siblings_0&#45;&gt;Lisa</title>
<path fill="none" stroke="#1abc9c" d="M541.03,-222C541.03,-222 559.81,-222 559.81,-222"/>
<polygon fill="#1abc9c" stroke="#1abc9c" points="567.81,-212 567.81,-232 563.81,-232 563.81,-212 567.81,-212"/>
<polyline fill="none" stroke="#1abc9c" points="569.81,-222 559.81,-222 "/>
</g>
<!-- Maggie -->
<g id="node7" class="node">
<title>Maggie</title>
<polygon fill="white" stroke="#cccccc" points="750,-310.5 570,-310.5 570,-263.5 750,-263.5 750,-310.5"/>
<text text-anchor="start" x="632" y="-288" font-family="Sedgwick Ave" font-size="20.00">Maggie</text>
<text text-anchor="start" x="628" y="-272" font-family="Sedgwick Ave" font-size="10.00" fill="#aaaaaa">Maggie Simpson</text>
</g>
<!-- siblings_0&#45;&gt;Maggie -->
<g id="edge6" class="edge">
<title>siblings_0&#45;&gt;Maggie</title>
<path fill="none" stroke="#1abc9c" d="M538,-222.66C538,-229.16 538,-281.17 538,-281.17 538,-281.17 559.74,-281.17 559.74,-281.17"/>
<polygon fill="#1abc9c" stroke="#1abc9c" points="567.74,-271.17 567.74,-291.17 563.74,-291.17 563.74,-271.17 567.74,-271.17"/>
<polyline fill="none" stroke="#1abc9c" points="569.74,-281.17 559.74,-281.17 "/>
</g>
<!-- union_1 -->
<g id="node8" class="node">
<title>union_1</title>
<ellipse fill="#2ecc71" stroke="white" cx="220.5" cy="-227" rx="3.5" ry="3.5"/>
</g>
<!-- siblings_1 -->
<g id="node11" class="node">
<title>siblings_1</title>
<polygon fill="#2ecc71" stroke="#cccccc" stroke-width="0" points="260,-227.5 253,-227.5 253,-226.5 260,-226.5 260,-227.5"/>
</g>
<!-- union_1&#45;&gt;siblings_1 -->
<g id="edge9" class="edge">
<title>union_1&#45;&gt;siblings_1</title>
<path fill="none" stroke="#2ecc71" d="M224.08,-227C230.91,-227 245.73,-227 252.72,-227"/>
</g>
<!-- Abe -->
<g id="node9" class="node">
<title>Abe</title>
<polygon fill="white" stroke="#cccccc" points="188,-313.5 8,-313.5 8,-266.5 188,-266.5 188,-313.5"/>
<text text-anchor="start" x="82.5" y="-291" font-family="Sedgwick Ave" font-size="20.00">Abe</text>
<text text-anchor="start" x="72" y="-275" font-family="Sedgwick Ave" font-size="10.00" fill="#aaaaaa">Abe Simpson</text>
</g>
<!-- Abe&#45;&gt;union_1 -->
<g id="edge7" class="edge">
<title>Abe&#45;&gt;union_1</title>
<path fill="none" stroke="#2ecc71" d="M188.04,-295.83C206.79,-295.83 221,-295.83 221,-295.83 221,-295.83 221,-245 221,-230.7"/>
</g>
<!-- Mona -->
<g id="node10" class="node">
<title>Mona</title>
<polygon fill="white" stroke="#cccccc" points="188,-248.5 8,-248.5 8,-201.5 188,-201.5 188,-248.5"/>
<text text-anchor="start" x="76.5" y="-226" font-family="Sedgwick Ave" font-size="20.00">Mona</text>
<text text-anchor="start" x="70" y="-210" font-family="Sedgwick Ave" font-size="10.00" fill="#aaaaaa">Mona Simpson</text>
</g>
<!-- Mona&#45;&gt;union_1 -->
<g id="edge8" class="edge">
<title>Mona&#45;&gt;union_1</title>
<path fill="none" stroke="#2ecc71" d="M188.31,-227C200.94,-227 211.42,-227 216.73,-227"/>
</g>
<!-- siblings_1&#45;&gt;Homer -->
<g id="edge10" class="edge">
<title>siblings_1&#45;&gt;Homer</title>
<path fill="none" stroke="#2ecc71" d="M260.03,-227C260.03,-227 278.81,-227 278.81,-227"/>
<polygon fill="#2ecc71" stroke="#2ecc71" points="286.81,-217 286.81,-237 282.81,-237 282.81,-217 286.81,-217"/>
<polyline fill="none" stroke="#2ecc71" points="288.81,-227 278.81,-227 "/>
</g>
<!-- union_2 -->
<g id="node12" class="node">
<title>union_2</title>
<ellipse fill="#3498db" stroke="white" cx="220.5" cy="-97" rx="3.5" ry="3.5"/>
</g>
<!-- siblings_2 -->
<g id="node15" class="node">
<title>siblings_2</title>
<polygon fill="#3498db" stroke="#cccccc" stroke-width="0" points="260,-97.5 253,-97.5 253,-96.5 260,-96.5 260,-97.5"/>
</g>
<!-- union_2&#45;&gt;siblings_2 -->
<g id="edge13" class="edge">
<title>union_2&#45;&gt;siblings_2</title>
<path fill="none" stroke="#3498db" d="M224.08,-97C230.91,-97 245.73,-97 252.72,-97"/>
</g>
<!-- Jacqueline -->
<g id="node13" class="node">
<title>Jacqueline</title>
<polygon fill="white" stroke="#cccccc" points="188,-120.5 8,-120.5 8,-73.5 188,-73.5 188,-120.5"/>
<text text-anchor="start" x="54" y="-98" font-family="Sedgwick Ave" font-size="20.00">Jacqueline</text>
<text text-anchor="start" x="58" y="-82" font-family="Sedgwick Ave" font-size="10.00" fill="#aaaaaa">Jacqueline Bouvier</text>
</g>
<!-- Jacqueline&#45;&gt;union_2 -->
<g id="edge11" class="edge">
<title>Jacqueline&#45;&gt;union_2</title>
<path fill="none" stroke="#3498db" d="M188.31,-97C200.94,-97 211.42,-97 216.73,-97"/>
</g>
<!-- Clancy -->
<g id="node14" class="node">
<title>Clancy</title>
<polygon fill="white" stroke="#cccccc" points="188,-55.5 8,-55.5 8,-8.5 188,-8.5 188,-55.5"/>
<text text-anchor="start" x="71" y="-33" font-family="Sedgwick Ave" font-size="20.00">Clancy</text>
<text text-anchor="start" x="67" y="-17" font-family="Sedgwick Ave" font-size="10.00" fill="#aaaaaa">Clancy Bouvier</text>
</g>
<!-- Clancy&#45;&gt;union_2 -->
<g id="edge12" class="edge">
<title>Clancy&#45;&gt;union_2</title>
<path fill="none" stroke="#3498db" d="M188.04,-39.83C206.79,-39.83 221,-39.83 221,-39.83 221,-39.83 221,-80.53 221,-93.25"/>
</g>
<!-- siblings_2&#45;&gt;Marge -->
<g id="edge14" class="edge">
<title>siblings_2&#45;&gt;Marge</title>
<path fill="none" stroke="#3498db" d="M257,-97.73C257,-104.87 257,-162 257,-162 257,-162 278.74,-162 278.74,-162"/>
<polygon fill="#3498db" stroke="#3498db" points="286.74,-152 286.74,-172 282.74,-172 282.74,-152 286.74,-152"/>
<polyline fill="none" stroke="#3498db" points="288.74,-162 278.74,-162 "/>
</g>
<!-- Patty -->
<g id="node16" class="node">
<title>Patty</title>
<polygon fill="white" stroke="#cccccc" points="469,-55.5 289,-55.5 289,-8.5 469,-8.5 469,-55.5"/>
<text text-anchor="start" x="355" y="-33" font-family="Sedgwick Ave" font-size="20.00">Patty</text>
<text text-anchor="start" x="349" y="-17" font-family="Sedgwick Ave" font-size="10.00" fill="#aaaaaa">Patty Bouvier</text>
</g>
<!-- siblings_2&#45;&gt;Patty -->
<g id="edge15" class="edge">
<title>siblings_2&#45;&gt;Patty</title>
<path fill="none" stroke="#3498db" d="M257,-96.18C257,-88.18 257,-24.17 257,-24.17 257,-24.17 278.74,-24.17 278.74,-24.17"/>
<polygon fill="#3498db" stroke="#3498db" points="286.74,-14.17 286.74,-34.17 282.74,-34.17 282.74,-14.17 286.74,-14.17"/>
<polyline fill="none" stroke="#3498db" points="288.74,-24.17 278.74,-24.17 "/>
</g>
<!-- Selma -->
<g id="node17" class="node">
<title>Selma</title>
<polygon fill="white" stroke="#cccccc" points="469,-120.5 289,-120.5 289,-73.5 469,-73.5 469,-120.5"/>
<text text-anchor="start" x="355" y="-98" font-family="Sedgwick Ave" font-size="20.00">Selma</text>
<text text-anchor="start" x="349" y="-82" font-family="Sedgwick Ave" font-size="10.00" fill="#aaaaaa">Selma Bouvier</text>
</g>
<!-- siblings_2&#45;&gt;Selma -->
<g id="edge16" class="edge">
<title>siblings_2&#45;&gt;Selma</title>
<path fill="none" stroke="#3498db" d="M260.03,-97C260.03,-97 278.81,-97 278.81,-97"/>
<polygon fill="#3498db" stroke="#3498db" points="286.81,-87 286.81,-107 282.81,-107 282.81,-87 286.81,-87"/>
<polyline fill="none" stroke="#3498db" points="288.81,-97 278.81,-97 "/>
</g>
</g>
</svg>
